<svg width="1025" height="707" viewBox="0 0 1025 707" fill="none" xmlns="http://www.w3.org/2000/svg">
<path d="M1024.47 313.974V0H945.701V156.987H866.932V313.974H1024.47Z" fill="white"/>
<path d="M79.2399 0H0.470703V313.974H158.009H236.778V156.987H79.2399V0Z" fill="white"/>
<path d="M788.163 627.949H1024.47V549.455H788.163V627.949Z" fill="#D61D2D"/>
<path fill-rule="evenodd" clip-rule="evenodd" d="M315.548 392.468H473.086V313.974H315.548V392.468ZM551.855 392.468V313.974H709.394V392.468H551.855Z" fill="white"/>
<path d="M551.855 392.468V313.974H473.086V392.468H551.855Z" fill="black"/>
<path d="M788.163 392.468V313.974H709.394V392.468H788.163Z" fill="black"/>
<path fill-rule="evenodd" clip-rule="evenodd" d="M551.855 235.481V156.987H236.778V313.974H158.009V470.961V627.949H236.778H315.548H473.086V706.442H1024.47V627.949H788.163V549.455H1024.47V470.961H866.932V313.974V156.987H630.625V235.481H551.855ZM315.548 392.468V313.974H473.086H551.855H709.394H788.163V392.468H709.394H551.855H473.086H315.548Z" fill="#477BFF"/>
</svg>
