<svg width="1024" height="901" viewBox="0 0 1024 901" fill="none" xmlns="http://www.w3.org/2000/svg">
<path d="M903.529 240.098V0H843.294V120.049H783.059V240.098H903.529Z" fill="white"/>
<path d="M180.706 0H120.471V240.098H240.941H301.176V120.049H180.706V0Z" fill="white"/>
<path d="M180.706 600.245H0V900.367H180.706V840.343H60.2353V780.318H180.706V840.343H240.941V660.269H180.706V720.294H60.2353V660.269H180.706V600.245Z" fill="#477BFF"/>
<path d="M301.176 600.245H361.412V840.343H481.882V900.367H301.176V600.245Z" fill="#477BFF"/>
<path d="M602.353 600.245H542.118V900.367H722.823V840.343H602.353V600.245Z" fill="#477BFF"/>
<path d="M722.823 600.245V840.343H783.059V600.245H722.823Z" fill="#477BFF"/>
<path d="M843.294 600.245H1024V660.269H903.529V720.294H1024V780.318H903.529V840.343H1024V900.367H843.294V600.245Z" fill="#477BFF"/>
<path d="M722.823 480.196H903.529V420.171H722.823V480.196Z" fill="#D61D2D"/>
<path fill-rule="evenodd" clip-rule="evenodd" d="M361.412 300.122H481.882V240.098H361.412V300.122ZM542.118 300.122V240.098H662.588V300.122H542.118Z" fill="white"/>
<path d="M542.118 300.122V240.098H481.882V300.122H542.118Z" fill="black"/>
<path d="M722.823 300.122V240.098H662.588V300.122H722.823Z" fill="black"/>
<path fill-rule="evenodd" clip-rule="evenodd" d="M542.118 180.073V120.049H301.176V240.098H240.941V360.147V480.196H301.176H361.412H481.882V540.22H903.529V480.196H722.823V420.171H903.529V360.147H783.059V240.098V120.049H602.353V180.073H542.118ZM361.412 300.122V240.098H481.882H542.118H662.588H722.823V300.122H662.588H542.118H481.882H361.412Z" fill="#477BFF"/>
</svg>
